<svg xmlns="http://www.w3.org/2000/svg"  viewBox="0 0 64 64" width="512px" height="512px"><linearGradient id="RJLCjtgQJehY7FbJXnLHUa" x1="32" x2="32" y1="6" y2="57.755" gradientUnits="userSpaceOnUse" spreadMethod="reflect"><stop offset="0" stop-color="#1a6dff"/><stop offset="1" stop-color="#c822ff"/></linearGradient><path fill="url(#RJLCjtgQJehY7FbJXnLHUa)" d="M32,30c-4.411,0-8-3.589-8-8v-8c0-4.411,3.589-8,8-8s8,3.589,8,8v8C40,26.411,36.411,30,32,30 z M32,8c-3.309,0-6,2.691-6,6v8c0,3.309,2.691,6,6,6s6-2.691,6-6v-8C38,10.691,35.309,8,32,8z"/><linearGradient id="RJLCjtgQJehY7FbJXnLHUb" x1="32" x2="32" y1="6" y2="57.755" gradientUnits="userSpaceOnUse" spreadMethod="reflect"><stop offset="0" stop-color="#1a6dff"/><stop offset="1" stop-color="#c822ff"/></linearGradient><path fill="url(#RJLCjtgQJehY7FbJXnLHUb)" d="M32,58c-4.411,0-8-3.589-8-8v-8c0-4.411,3.589-8,8-8s8,3.589,8,8v8C40,54.411,36.411,58,32,58 z M32,36c-3.309,0-6,2.691-6,6v8c0,3.309,2.691,6,6,6s6-2.691,6-6v-8C38,38.691,35.309,36,32,36z"/><linearGradient id="RJLCjtgQJehY7FbJXnLHUc" x1="18" x2="18" y1="6" y2="57.755" gradientUnits="userSpaceOnUse" spreadMethod="reflect"><stop offset="0" stop-color="#1a6dff"/><stop offset="1" stop-color="#c822ff"/></linearGradient><path fill="url(#RJLCjtgQJehY7FbJXnLHUc)" d="M22,40h-8c-4.411,0-8-3.589-8-8s3.589-8,8-8h8c4.411,0,8,3.589,8,8S26.411,40,22,40z M14,26 c-3.309,0-6,2.691-6,6s2.691,6,6,6h8c3.309,0,6-2.691,6-6s-2.691-6-6-6H14z"/><linearGradient id="RJLCjtgQJehY7FbJXnLHUd" x1="46" x2="46" y1="6" y2="57.755" gradientUnits="userSpaceOnUse" spreadMethod="reflect"><stop offset="0" stop-color="#1a6dff"/><stop offset="1" stop-color="#c822ff"/></linearGradient><path fill="url(#RJLCjtgQJehY7FbJXnLHUd)" d="M50,40h-8c-4.411,0-8-3.589-8-8s3.589-8,8-8h8c4.411,0,8,3.589,8,8S54.411,40,50,40z M42,26 c-3.309,0-6,2.691-6,6s2.691,6,6,6h8c3.309,0,6-2.691,6-6s-2.691-6-6-6H42z"/><linearGradient id="RJLCjtgQJehY7FbJXnLHUe" x1="22.1" x2="22.1" y1="6" y2="57.755" gradientUnits="userSpaceOnUse" spreadMethod="reflect"><stop offset="0" stop-color="#1a6dff"/><stop offset="1" stop-color="#c822ff"/></linearGradient><path fill="url(#RJLCjtgQJehY7FbJXnLHUe)" d="M24.929,32.925c-2.048,0-4.097-0.78-5.657-2.339l-5.657-5.657 c-3.119-3.119-3.119-8.194,0-11.313c3.119-3.119,8.194-3.119,11.313,0l5.657,5.657c3.119,3.119,3.119,8.195,0,11.314 C29.026,32.146,26.978,32.925,24.929,32.925z M19.272,13.275c-1.537,0-3.073,0.585-4.243,1.754c-2.339,2.34-2.339,6.146,0,8.485 l5.657,5.657c2.341,2.34,6.147,2.338,8.486,0c2.339-2.339,2.339-6.146,0-8.486l-5.657-5.657 C22.345,13.86,20.809,13.275,19.272,13.275z"/><linearGradient id="RJLCjtgQJehY7FbJXnLHUf" x1="41.9" x2="41.9" y1="6" y2="57.755" gradientUnits="userSpaceOnUse" spreadMethod="reflect"><stop offset="0" stop-color="#1a6dff"/><stop offset="1" stop-color="#c822ff"/></linearGradient><path fill="url(#RJLCjtgQJehY7FbJXnLHUf)" d="M44.728,52.724c-2.049,0-4.097-0.78-5.657-2.339l-5.657-5.657 c-3.119-3.119-3.119-8.195,0-11.314s8.194-3.119,11.314,0l5.657,5.657c3.119,3.119,3.119,8.194,0,11.313 C48.825,51.944,46.776,52.724,44.728,52.724z M39.071,33.074c-1.536,0-3.073,0.585-4.243,1.754c-2.339,2.339-2.339,6.146,0,8.486 l5.657,5.657c2.339,2.339,6.146,2.339,8.485,0c2.339-2.34,2.339-6.146,0-8.485l-5.657-5.657 C42.144,33.659,40.607,33.074,39.071,33.074z"/><linearGradient id="RJLCjtgQJehY7FbJXnLHUg" x1="22.1" x2="22.1" y1="6" y2="57.755" gradientUnits="userSpaceOnUse" spreadMethod="reflect"><stop offset="0" stop-color="#1a6dff"/><stop offset="1" stop-color="#c822ff"/></linearGradient><path fill="url(#RJLCjtgQJehY7FbJXnLHUg)" d="M19.272,52.724c-2.048,0-4.097-0.78-5.657-2.339c-3.119-3.12-3.119-8.195,0-11.313 l5.657-5.657c3.119-3.119,8.194-3.119,11.314,0c3.119,3.119,3.119,8.195,0,11.314l-5.657,5.657 C23.369,51.944,21.321,52.724,19.272,52.724z M24.929,33.074c-1.537,0-3.073,0.585-4.243,1.754l-5.657,5.657 c-2.339,2.339-2.339,6.146,0,8.485c2.34,2.339,6.146,2.339,8.485,0l5.657-5.657c2.339-2.339,2.339-6.146,0-8.486 C28.002,33.659,26.465,33.074,24.929,33.074z"/><linearGradient id="RJLCjtgQJehY7FbJXnLHUh" x1="41.9" x2="41.9" y1="6" y2="57.755" gradientUnits="userSpaceOnUse" spreadMethod="reflect"><stop offset="0" stop-color="#1a6dff"/><stop offset="1" stop-color="#c822ff"/></linearGradient><path fill="url(#RJLCjtgQJehY7FbJXnLHUh)" d="M39.071,32.925c-2.048,0-4.097-0.78-5.657-2.339c-3.119-3.119-3.119-8.195,0-11.314 l5.657-5.657c3.119-3.119,8.194-3.119,11.313,0c3.119,3.12,3.119,8.195,0,11.313l-5.657,5.657 C43.168,32.146,41.12,32.925,39.071,32.925z M34.828,20.686c-2.339,2.339-2.339,6.146,0,8.486c2.341,2.34,6.147,2.338,8.486,0 l5.657-5.657c2.339-2.339,2.339-6.146,0-8.485c-2.34-2.339-6.146-2.339-8.485,0L34.828,20.686z"/><linearGradient id="RJLCjtgQJehY7FbJXnLHUi" x1="32" x2="32" y1="6" y2="58" gradientUnits="userSpaceOnUse" spreadMethod="reflect"><stop offset="0" stop-color="#1a6dff"/><stop offset="1" stop-color="#c822ff"/></linearGradient><path fill="url(#RJLCjtgQJehY7FbJXnLHUi)" d="M58,32c0-4.03-3.01-7.37-6.89-7.91c2.36-3.14,2.13-7.62-0.73-10.47 c-2.85-2.86-7.33-3.09-10.47-0.73C39.37,9.01,36.03,6,32,6s-7.37,3.01-7.91,6.89c-3.14-2.36-7.62-2.13-10.47,0.73 c-2.86,2.85-3.09,7.33-0.73,10.47C9.01,24.63,6,27.97,6,32c0,4.03,3.01,7.37,6.89,7.91c-2.36,3.14-2.13,7.62,0.73,10.47 c1.55,1.56,3.6,2.34,5.65,2.34c1.7,0,3.4-0.54,4.82-1.61C24.63,54.99,27.97,58,32,58s7.37-3.01,7.91-6.89 c1.42,1.07,3.12,1.61,4.82,1.61c2.05,0,4.1-0.78,5.65-2.34c2.86-2.85,3.09-7.33,0.73-10.47C54.99,39.37,58,36.03,58,32z M40,22 v-6.49l0.49-0.48c2.33-2.34,6.14-2.34,8.48,0c2.34,2.34,2.34,6.15,0,8.48L48.49,24H42c-0.82,0-1.61,0.12-2.35,0.35 C39.88,23.61,40,22.82,40,22z M34.05,32.85c-0.22,0.17-0.43,0.36-0.64,0.56c-0.2,0.21-0.39,0.42-0.56,0.64 C32.57,34.02,32.29,34,32,34s-0.57,0.02-0.85,0.05c-0.17-0.22-0.36-0.43-0.56-0.64c-0.21-0.2-0.42-0.39-0.64-0.56 C29.98,32.57,30,32.29,30,32c0-0.29-0.02-0.57-0.05-0.85c0.22-0.17,0.43-0.36,0.64-0.56c0.2-0.21,0.39-0.42,0.56-0.64 C31.43,29.98,31.71,30,32,30s0.57-0.02,0.85-0.05c0.17,0.22,0.36,0.43,0.56,0.64c0.21,0.2,0.42,0.39,0.64,0.56 C34.02,31.43,34,31.71,34,32C34,32.29,34.02,32.57,34.05,32.85z M27.73,33.79C26.96,36.23,24.68,38,22,38h-4.49l3.18-3.17 c1.17-1.17,2.7-1.76,4.24-1.76C25.9,33.07,26.85,33.33,27.73,33.79z M20.69,29.17L17.51,26H22c2.68,0,4.96,1.77,5.73,4.21 C25.46,31.4,22.59,31.08,20.69,29.17z M26,42c0-2.68,1.77-4.96,4.21-5.73c1.19,2.27,0.87,5.14-1.04,7.04L26,46.49V42z M33.79,27.73 c-1.19-2.27-0.87-5.14,1.04-7.04L38,17.51V22C38,24.68,36.23,26.96,33.79,27.73z M36.27,30.21C37.04,27.77,39.32,26,42,26h4.49 l-3.18,3.17C41.41,31.08,38.54,31.4,36.27,30.21z M39.07,33.07c1.54,0,3.07,0.59,4.24,1.76L46.49,38H42c-2.68,0-4.96-1.77-5.73-4.21 C37.15,33.33,38.1,33.07,39.07,33.07z M26,14c0-3.31,2.69-6,6-6s6,2.69,6,6v0.69l-4.59,4.58c-0.58,0.58-1.05,1.23-1.41,1.92 c-0.36-0.69-0.83-1.34-1.41-1.92L26,14.69V14z M26,17.51l3.17,3.18c1.91,1.9,2.23,4.77,1.04,7.04C27.77,26.96,26,24.68,26,22V17.51z M15.03,15.03c1.17-1.17,2.71-1.76,4.24-1.76c1.54,0,3.08,0.59,4.24,1.76L24,15.51V22c0,0.82,0.12,1.61,0.35,2.35 C23.61,24.12,22.82,24,22,24h-6.49l-0.48-0.49C12.69,21.18,12.69,17.37,15.03,15.03z M8,32c0-3.31,2.69-6,6-6h0.69l4.58,4.59 c0.58,0.58,1.23,1.05,1.92,1.41c-0.69,0.36-1.34,0.83-1.92,1.41L14.69,38H14C10.69,38,8,35.31,8,32z M24,42v6.49l-0.49,0.48 c-2.33,2.34-6.14,2.34-8.48,0c-2.34-2.34-2.34-6.15,0-8.48L15.51,40H22c0.82,0,1.61-0.12,2.35-0.35C24.12,40.39,24,41.18,24,42z M38,50c0,3.31-2.69,6-6,6s-6-2.69-6-6v-0.69l4.59-4.58c0.58-0.58,1.05-1.23,1.41-1.92c0.36,0.69,0.83,1.34,1.41,1.92L38,49.31V50z M38,46.49l-3.17-3.18c-1.91-1.9-2.23-4.77-1.04-7.04C36.23,37.04,38,39.32,38,42V46.49z M48.97,48.97c-2.34,2.34-6.15,2.34-8.48,0 L40,48.49V42c0-0.82-0.12-1.61-0.35-2.35C40.39,39.88,41.18,40,42,40h6.49l0.48,0.49C51.31,42.82,51.31,46.63,48.97,48.97z M50,38 h-0.69l-4.58-4.59c-0.58-0.58-1.23-1.05-1.92-1.41c0.69-0.36,1.34-0.83,1.92-1.41L49.31,26H50c3.31,0,6,2.69,6,6S53.31,38,50,38z"/><linearGradient id="RJLCjtgQJehY7FbJXnLHUj" x1="28.454" x2="28.454" y1="17.51" y2="27.73" gradientUnits="userSpaceOnUse" spreadMethod="reflect"><stop offset="0" stop-color="#6dc7ff"/><stop offset="1" stop-color="#e6abff"/></linearGradient><path fill="url(#RJLCjtgQJehY7FbJXnLHUj)" d="M30.21,27.73C27.77,26.96,26,24.68,26,22v-4.49l3.17,3.18 C31.08,22.59,31.4,25.46,30.21,27.73z"/><linearGradient id="RJLCjtgQJehY7FbJXnLHUk" x1="22.62" x2="22.62" y1="26" y2="30.909" gradientUnits="userSpaceOnUse" spreadMethod="reflect"><stop offset="0" stop-color="#6dc7ff"/><stop offset="1" stop-color="#e6abff"/></linearGradient><path fill="url(#RJLCjtgQJehY7FbJXnLHUk)" d="M27.73,30.21c-2.27,1.19-5.14,0.87-7.04-1.04L17.51,26H22C24.68,26,26.96,27.77,27.73,30.21z"/><linearGradient id="RJLCjtgQJehY7FbJXnLHUl" x1="22.62" x2="22.62" y1="33.07" y2="38" gradientUnits="userSpaceOnUse" spreadMethod="reflect"><stop offset="0" stop-color="#6dc7ff"/><stop offset="1" stop-color="#e6abff"/></linearGradient><path fill="url(#RJLCjtgQJehY7FbJXnLHUl)" d="M27.73,33.79C26.96,36.23,24.68,38,22,38h-4.49l3.18-3.17c1.17-1.17,2.7-1.76,4.24-1.76 C25.9,33.07,26.85,33.33,27.73,33.79z"/><linearGradient id="RJLCjtgQJehY7FbJXnLHUm" x1="28.454" x2="28.454" y1="36.27" y2="46.49" gradientUnits="userSpaceOnUse" spreadMethod="reflect"><stop offset="0" stop-color="#6dc7ff"/><stop offset="1" stop-color="#e6abff"/></linearGradient><path fill="url(#RJLCjtgQJehY7FbJXnLHUm)" d="M29.17,43.31L26,46.49V42c0-2.68,1.77-4.96,4.21-5.73C31.4,38.54,31.08,41.41,29.17,43.31z"/><linearGradient id="RJLCjtgQJehY7FbJXnLHUn" x1="35.546" x2="35.546" y1="36.27" y2="46.49" gradientUnits="userSpaceOnUse" spreadMethod="reflect"><stop offset="0" stop-color="#6dc7ff"/><stop offset="1" stop-color="#e6abff"/></linearGradient><path fill="url(#RJLCjtgQJehY7FbJXnLHUn)" d="M38,42v4.49l-3.17-3.18c-1.91-1.9-2.23-4.77-1.04-7.04C36.23,37.04,38,39.32,38,42z"/><linearGradient id="RJLCjtgQJehY7FbJXnLHUo" x1="41.38" x2="41.38" y1="33.07" y2="38" gradientUnits="userSpaceOnUse" spreadMethod="reflect"><stop offset="0" stop-color="#6dc7ff"/><stop offset="1" stop-color="#e6abff"/></linearGradient><path fill="url(#RJLCjtgQJehY7FbJXnLHUo)" d="M46.49,38H42c-2.68,0-4.96-1.77-5.73-4.21c0.88-0.46,1.83-0.72,2.8-0.72 c1.54,0,3.07,0.59,4.24,1.76L46.49,38z"/><linearGradient id="RJLCjtgQJehY7FbJXnLHUp" x1="41.38" x2="41.38" y1="26" y2="30.909" gradientUnits="userSpaceOnUse" spreadMethod="reflect"><stop offset="0" stop-color="#6dc7ff"/><stop offset="1" stop-color="#e6abff"/></linearGradient><path fill="url(#RJLCjtgQJehY7FbJXnLHUp)" d="M46.49,26l-3.18,3.17c-1.9,1.91-4.77,2.23-7.04,1.04C37.04,27.77,39.32,26,42,26H46.49z"/><linearGradient id="RJLCjtgQJehY7FbJXnLHUq" x1="35.546" x2="35.546" y1="17.51" y2="27.73" gradientUnits="userSpaceOnUse" spreadMethod="reflect"><stop offset="0" stop-color="#6dc7ff"/><stop offset="1" stop-color="#e6abff"/></linearGradient><path fill="url(#RJLCjtgQJehY7FbJXnLHUq)" d="M38,17.51V22c0,2.68-1.77,4.96-4.21,5.73c-1.19-2.27-0.87-5.14,1.04-7.04L38,17.51z"/></svg>